<svg width="1200" height="420" viewBox="0 0 680 240" role="img" xmlns="http://www.w3.org/2000/svg">
  <title>GitHub profile banner — Sai Kiran Kudipudi</title>
  <desc>Dark professional banner with geometric art, name, role and email</desc>

  <defs>
    <linearGradient id="bg" x1="0%" y1="0%" x2="100%" y2="0%">
      <stop offset="0%" style="stop-color:#0f0c29"/>
      <stop offset="45%" style="stop-color:#1a1060"/>
      <stop offset="100%" style="stop-color:#060612"/>
    </linearGradient>
    <linearGradient id="accent" x1="0%" y1="0%" x2="100%" y2="100%">
      <stop offset="0%" style="stop-color:#f97316"/>
      <stop offset="100%" style="stop-color:#fb923c"/>
    </linearGradient>
    <linearGradient id="glowL" x1="0%" y1="0%" x2="100%" y2="100%">
      <stop offset="0%" style="stop-color:#7c3aed;stop-opacity:0.5"/>
      <stop offset="100%" style="stop-color:#4f46e5;stop-opacity:0"/>
    </linearGradient>
    <linearGradient id="glowR" x1="100%" y1="0%" x2="0%" y2="100%">
      <stop offset="0%" style="stop-color:#f97316;stop-opacity:0.3"/>
      <stop offset="100%" style="stop-color:#f97316;stop-opacity:0"/>
    </linearGradient>
  </defs>

  <rect width="680" height="240" fill="url(#bg)"/>
  <circle cx="80" cy="120" r="160" fill="url(#glowL)" opacity="0.6"/>
  <circle cx="620" cy="100" r="130" fill="url(#glowR)" opacity="0.5"/>

  <g stroke="#ffffff" stroke-width="0.5" opacity="0.18" fill="none">
    <line x1="30" y1="20" x2="110" y2="80"/>
    <line x1="110" y1="80" x2="60" y2="150"/>
    <line x1="60" y1="150" x2="30" y2="20"/>
    <line x1="30" y1="20" x2="140" y2="30"/>
    <line x1="140" y1="30" x2="110" y2="80"/>
    <line x1="60" y1="150" x2="20" y2="200"/>
    <line x1="20" y1="200" x2="100" y2="220"/>
    <line x1="100" y1="220" x2="60" y2="150"/>
    <line x1="110" y1="80" x2="160" y2="110"/>
    <line x1="160" y1="110" x2="130" y2="180"/>
    <line x1="130" y1="180" x2="60" y2="150"/>
    <line x1="140" y1="30" x2="190" y2="60"/>
    <line x1="190" y1="60" x2="160" y2="110"/>
    <line x1="30" y1="20" x2="10" y2="80"/>
    <line x1="10" y1="80" x2="60" y2="150"/>
  </g>

  <g stroke="#ffffff" stroke-width="0.5" opacity="0.18" fill="none">
    <circle cx="610" cy="90" r="70"/>
    <line x1="610" y1="20" x2="680" y2="70"/>
    <line x1="680" y1="70" x2="660" y2="160"/>
    <line x1="660" y1="160" x2="580" y2="155"/>
    <line x1="580" y1="155" x2="545" y2="80"/>
    <line x1="545" y1="80" x2="610" y2="20"/>
    <line x1="610" y1="20" x2="660" y2="160"/>
    <line x1="680" y1="70" x2="580" y2="155"/>
    <line x1="545" y1="80" x2="660" y2="160"/>
    <line x1="610" y1="20" x2="580" y2="155"/>
    <circle cx="610" cy="90" r="40"/>
    <line x1="610" y1="50" x2="648" y2="115"/>
    <line x1="648" y1="115" x2="572" y2="115"/>
    <line x1="572" y1="115" x2="610" y2="50"/>
  </g>

  <g fill="#ffffff" opacity="0.25">
    <circle cx="210" cy="35" r="2"/><circle cx="240" cy="35" r="2"/><circle cx="270" cy="35" r="2"/><circle cx="300" cy="35" r="2"/>
    <circle cx="210" cy="55" r="2"/><circle cx="240" cy="55" r="2"/><circle cx="270" cy="55" r="2"/><circle cx="300" cy="55" r="2"/>
    <circle cx="210" cy="75" r="2"/><circle cx="240" cy="75" r="2"/><circle cx="270" cy="75" r="2"/><circle cx="300" cy="75" r="2"/>
  </g>

  <g fill="#ffffff" opacity="0.25">
    <circle cx="390" cy="165" r="2"/><circle cx="420" cy="165" r="2"/><circle cx="450" cy="165" r="2"/><circle cx="480" cy="165" r="2"/>
    <circle cx="390" cy="185" r="2"/><circle cx="420" cy="185" r="2"/><circle cx="450" cy="185" r="2"/><circle cx="480" cy="185" r="2"/>
    <circle cx="390" cy="205" r="2"/><circle cx="420" cy="205" r="2"/><circle cx="450" cy="205" r="2"/><circle cx="480" cy="205" r="2"/>
  </g>

  <rect x="220" y="108" width="3" height="60" fill="url(#accent)" rx="1.5"/>
  <text x="232" y="138" font-family="Georgia, serif" font-size="28" font-weight="700" fill="#ffffff" letter-spacing="0.5">Sai Kiran Kudipudi</text>
  <text x="233" y="162" font-family="Arial, sans-serif" font-size="14" font-weight="400" fill="#c4b5fd" letter-spacing="1">AI / ML Engineer &amp; Full Stack Developer</text>

  <rect x="231" y="176" width="220" height="24" rx="12" fill="#f97316" opacity="0.12"/>
  <text x="243" y="192" font-family="Arial, sans-serif" font-size="12" fill="#fb923c" letter-spacing="0.3">saikirankudipudi999@gmail.com</text>

  <line x1="232" y1="210" x2="500" y2="210" stroke="#f97316" stroke-width="0.5" opacity="0.4"/>
  <circle cx="232" cy="222" r="2" fill="#f97316" opacity="0.6"/>
  <circle cx="244" cy="222" r="1.5" fill="#f97316" opacity="0.6"/>
  <circle cx="254" cy="222" r="1" fill="#f97316" opacity="0.6"/>
  <text x="262" y="225" font-family="Arial, sans-serif" font-size="10" fill="#888888" letter-spacing="1.5">OPEN TO OPPORTUNITIES</text>
</svg>
